<svg width="89" height="41" viewBox="0 0 89 41" fill="none" xmlns="http://www.w3.org/2000/svg">
<g clip-path="url(#clip0_1318_15447)">
<path d="M5.74872 6.68359C6.18205 6.68359 6.29141 6.82682 6.29141 7.25648V14.4646C7.73787 14.3214 9.11212 14.2497 10.5586 14.2497C17.0316 14.2497 18.8763 16.6518 18.8763 24.6128C18.8763 32.5738 16.9965 34.939 9.0399 34.939C6.65457 34.939 3.68736 34.6526 0.831564 34.1861C0.323959 34.1145 0 33.7912 0 33.1467V7.25852C0 6.82886 0.109362 6.68564 0.542683 6.68564H5.75079L5.74872 6.68359ZM6.29141 19.6635V29.3084C7.19519 29.4884 8.56944 29.56 9.18434 29.56C12.4033 29.56 12.5849 28.1606 12.5849 24.6107C12.5849 20.488 12.1144 19.6614 8.89546 19.6614H6.29141V19.6635Z" fill="#13294C"/>
<path d="M29.1235 9.27856C29.1235 11.2161 29.1235 12.3517 25.7559 12.3517C22.3884 12.3517 22.3203 11.2161 22.3203 9.27856C22.3203 7.34099 22.3203 6.24023 25.7559 6.24023C29.1915 6.24023 29.1235 7.37577 29.1235 9.27856ZM28.327 14.4304C28.6881 14.4304 28.8697 14.6452 28.8697 15.0033V34.1867C28.8697 34.5816 28.6881 34.7596 28.327 34.7596H23.1189C22.7578 34.7596 22.5762 34.5795 22.5762 34.1867V15.0033C22.5762 14.6452 22.7578 14.4304 23.1189 14.4304H28.327Z" fill="#13294C"/>
<path d="M38.7977 0C39.1588 0 39.3403 0.204601 39.3403 0.544239V40.4558C39.3403 40.8302 39.1588 41 38.7977 41H33.5896C33.2285 41 33.0469 40.8302 33.0469 40.4558V0.544239C33.0469 0.204601 33.2285 0 33.5896 0H38.7977Z" fill="#13294C"/>
<path d="M49.2898 0C49.651 0 49.8325 0.204601 49.8325 0.544239V40.4537C49.8325 40.8281 49.651 40.998 49.2898 40.998H44.0817C43.7206 40.998 43.5391 40.8281 43.5391 40.4537V0.544239C43.5391 0.204601 43.7186 0 44.0817 0H49.2898Z" fill="#13294C"/>
<path d="M72.6858 24.613C72.6858 32.8973 70.8452 34.9393 63.0929 34.9393C55.3406 34.9393 53.5 32.8953 53.5 24.613C53.5 16.3308 55.3385 14.25 63.0929 14.25C70.8473 14.25 72.6858 16.294 72.6858 24.613ZM59.812 24.613C59.812 28.5578 60.3527 29.5623 63.0929 29.5623C65.8331 29.5623 66.3738 28.5578 66.3738 24.613C66.3738 20.6683 65.8331 19.629 63.0929 19.629C60.3527 19.629 59.812 20.6336 59.812 24.613Z" fill="#13294C"/>
<path d="M88.2173 14.0704C88.7394 14.0704 88.9994 14.3302 88.9994 14.852V18.5348C88.9994 19.0565 88.7394 19.3164 88.2173 19.3164H86.026C83.3414 19.3164 82.708 20.098 82.708 22.9255V33.7899C82.708 34.4241 82.3716 34.7576 81.7382 34.7576H77.3761C76.7426 34.7576 76.4062 34.4241 76.4062 33.7899V21.6979C76.4062 16.2269 78.6059 14.0684 85.3904 14.0684H88.2153L88.2173 14.0704Z" fill="#13294C"/>
</g>
<defs>
<clipPath id="clip0_1318_15447">
<rect width="89" height="41" fill="white"/>
</clipPath>
</defs>
</svg>
